<?xml version="1.0" encoding="utf-8"?>
<!-- Generator: Adobe Illustrator 24.1.2, SVG Export Plug-In . SVG Version: 6.00 Build 0)  -->
<svg version="1.1" id="Layer_1" xmlns="http://www.w3.org/2000/svg" xmlns:xlink="http://www.w3.org/1999/xlink" x="0px" y="0px"
	 viewBox="0 0 173 74" style="enable-background:new 0 0 173 74;" xml:space="preserve">
<style type="text/css">
	.st0{fill:#0F9D49;}
	.st1{fill-rule:evenodd;clip-rule:evenodd;fill:#010101;}
	.st2{fill-rule:evenodd;clip-rule:evenodd;fill:#231F20;}
	.st3{fill:#0C9949;}
	.st4{fill:#0C793D;}
</style>
<g>
	<path class="st0" d="M29.1,33.2c-1.2-0.4-2.2-0.5-3.2-0.5c-0.9,0-1.7,0.2-2.2,0.5c-0.5,0.3-0.8,0.8-0.8,1.5c0,0.7,0.3,1.2,1,1.6
		c0.7,0.4,1.8,0.8,3.3,1.2c1.6,0.5,2.9,0.9,3.9,1.4c1,0.5,1.9,1.2,2.6,2.1c0.7,0.9,1.1,2.1,1.1,3.6c0,2.2-0.8,3.9-2.5,5.1
		c-1.7,1.2-3.8,1.8-6.3,1.8c-1.7,0-3.4-0.3-5.1-0.8c-1.7-0.5-3.1-1.3-4.2-2.3l1.9-3.8c1,0.9,2.2,1.6,3.6,2c1.4,0.5,2.7,0.7,4,0.7
		c1,0,1.8-0.2,2.4-0.5c0.6-0.4,0.9-0.9,0.9-1.6c0-0.8-0.4-1.4-1.1-1.8c-0.7-0.4-1.8-0.8-3.4-1.3c-1.5-0.4-2.7-0.9-3.7-1.3
		c-1-0.4-1.8-1.1-2.5-2c-0.7-0.9-1.1-2-1.1-3.5c0-2.2,0.8-3.9,2.4-5.1c1.6-1.2,3.6-1.8,6.1-1.8c1.5,0,2.9,0.2,4.4,0.6
		c1.4,0.4,2.7,1,3.8,1.8l-2,4C31.4,34.1,30.3,33.6,29.1,33.2"/>
	<path class="st0" d="M56.1,30.7c1.5,1.6,2.2,3.7,2.2,6.4v14.1h-5.5V38.7c0-1.6-0.4-2.8-1.3-3.7c-0.9-0.9-2.1-1.4-3.7-1.4
		c-1.8,0-3.3,0.6-4.3,1.9c-1.1,1.2-1.6,2.8-1.6,4.6v11.1h-5.5V21.3h5.5v11.6c1.5-3,4.2-4.5,8.1-4.5C52.5,28.4,54.6,29.2,56.1,30.7"
		/>
	<path class="st0" d="M108.9,30.7c1.5,1.6,2.2,3.7,2.2,6.3v14h-5.5V38.6c0-1.6-0.4-2.8-1.3-3.7c-0.9-0.9-2.1-1.4-3.7-1.4
		c-1.8,0-3.3,0.6-4.3,1.8c-1.1,1.2-1.6,2.7-1.6,4.6v11.1h-5.5V21.3h5.5v11.6c1.5-2.9,4.2-4.4,8.1-4.5
		C105.3,28.4,107.4,29.1,108.9,30.7"/>
	<path class="st0" d="M130.7,29.8c1.8,1,3.2,2.3,4.2,4c1,1.7,1.5,3.7,1.5,5.9c0,2.3-0.5,4.3-1.5,6c-1,1.7-2.4,3.1-4.2,4
		c-1.8,1-3.8,1.4-6.2,1.4c-2.4,0-4.4-0.5-6.2-1.4c-1.8-1-3.2-2.3-4.2-4c-1-1.7-1.5-3.7-1.5-6c0-2.2,0.5-4.2,1.5-5.9
		c1-1.7,2.4-3.1,4.2-4c1.8-1,3.9-1.4,6.2-1.4C126.9,28.4,128.9,28.9,130.7,29.8 M119.9,35c-1.2,1.3-1.8,2.9-1.8,4.9s0.6,3.7,1.8,4.9
		c1.2,1.3,2.7,1.9,4.6,1.9c1.8,0,3.4-0.6,4.5-1.9c1.2-1.3,1.8-2.9,1.8-4.9s-0.6-3.7-1.8-4.9c-1.2-1.3-2.7-1.9-4.5-1.9
		C122.6,33.1,121.1,33.7,119.9,35"/>
	<polygon class="st0" points="137.3,28.6 156,28.6 156,32.2 143.7,46.6 156.4,46.6 156.4,51.1 136.9,51.1 136.9,47.4 149.2,33.1 
		137.3,33 	"/>
	<path class="st1" d="M83,28.9c-0.2-0.1-0.3-0.4-0.4-0.5c-2.9-2.3-6.6-3.3-11.3-2.4c-0.3,0.3-1.1,0.5-1.6,0.6c-0.1,0-0.1,0-0.1-0.1
		c0,0,0,0,0,0c0.4-0.2,0.9-0.4,1-0.6c1.1-0.4,2.3-0.6,3.4-0.7c0.7,0,1.5,0,2.2,0c0.3,0,0.5,0,0.8,0c0.7,0.1,1.5,0.3,2.2,0.5
		c0.9,0.3,1.7,0.7,2.6,1.1c0,0,0,0,0,0c0,0,0,0,0,0c0,0,0,0,0,0c0,0,0,0,0.1,0c0.4,0.2,0.7,0.4,1.1,0.6c1.1,0.8,2.2,2,2.9,3.3
		c0.5,0.2,0.7,1.1,1.2,1.4c-0.1-0.8-0.4-1.5-0.8-2.1c-1.4-2.1-4.5-4.5-6.6-5.2c-0.9-0.3-2.2-0.8-3.1-0.8c-0.3,0-0.6,0.2-0.7-0.1
		c-0.3,0-0.7,0.3-0.7-0.1c0.1,0,0.1,0,0.2-0.1c0.1,0,0.1,0,0.2,0c0.1,0,0.1,0,0.1-0.1c0.1,0,0.1-0.1,0.1-0.1c-0.1,0-0.1-0.1-0.2-0.1
		c0,0,0,0-0.1,0c-0.1,0-0.3,0-0.4,0c0,0,0,0,0,0c0,0,0,0-0.1,0c0,0-0.1,0-0.1,0c0,0,0,0,0,0c-0.1,0-0.2,0-0.3,0c0,0,0,0,0,0
		c-0.3,0-0.5,0-0.8,0c-0.6,0-1.2,0-1.8,0.1c0,0,0,0,0,0c-1.5,0.1-2.9,0.9-4.2,1.6c-1.2,0.6-2.5,1.1-3.5,2c-0.4,0.4-0.8,0.8-1,1.2
		c-2,2.6-3.3,5.6-3.4,9.3c0.1,2.1,0.5,4.6,1.5,6.7c2.4,4.7,6.7,7.5,11.5,8.1c0.5,0.1,1.3,0.1,1.8,0.1c1.8-0.1,4.5-0.4,5.7-1.8
		c0.9-0.4,1.7-0.9,2-1.6c-0.2,0.1-0.2-0.1-0.3-0.2c0.1-0.7,1.2-1.1,1.1-1.7c-0.3,0-1.3,0.7-1.7,0.7c-0.1-0.4,0.4-0.5,0.2-0.8
		c-0.3,0-0.7,0.4-0.8,0c0.4-0.3,0.6-0.8,0.8-1.2c-2.2,0.7-5.5,2.4-8.1,2c-0.3,0.1-0.5,0.1-0.8,0.2c-3-0.7-5.3-2.4-7-5.3
		c-0.1-0.3-0.2-0.6-0.3-0.9c-0.3-0.2,0.2-0.5-0.2-0.7c-1.2-4.6-0.2-8,2-10.7c1-0.9,2.2-1.7,3.3-2.1c1.9-0.7,4.5-1.3,7.6-0.6
		c2.6,1,4.3,2.4,5.8,4.9c0,0,0,0.1,0,0.1c0.3,0.5,0.6,1,0.8,1.5c0,0,0,0.1,0.1,0.1c0,0.1,0.1,0.1,0.2,0.1c0.2-0.1,0.2-0.3,0.2-0.5
		c-0.1-0.6-0.4-1.2-0.7-1.7c-0.1-0.2-0.2-0.3-0.3-0.5c0,0,0-0.1,0-0.1c0-0.1-0.1-0.1-0.2-0.2c-0.2-0.2-0.3-0.4-0.5-0.7
		c0-0.1-0.1-0.2-0.1-0.3c0,0,0.1,0,0.1,0c0,0,0.1,0,0.1,0.1c0.4,0.4,0.6,0.9,0.9,1.4c0.1,0.3,0.3,0.5,0.4,0.8c0,0.1,0.1,0.3,0.2,0.4
		c0,0.1,0.1,0.2,0.1,0.2c0.3,0.5,0.5,1.1,0.7,1.7c0.1,0.6,0.2,1.2,0.2,1.7c0,0.1,0,0.2,0,0.3c0,0,0,0.1,0,0.1c0,0.5,0,0.9-0.1,1.4
		c0,0.1,0.1,0.1,0.2,0c0,0.1,0.1,0.2,0.1,0.2c0.2-0.6,0-1.3,0.2-1.8c-0.1-2.2-0.9-4.8-1.9-6.1C84.3,30.3,83.8,29.5,83,28.9
		 M69.9,24.8c0,0,0.1-0.1,0.2-0.1c0.3-0.1,0.6-0.3,0.9-0.4c0.1,0,0.2-0.1,0.4-0.1c0.3-0.1,0.6-0.1,0.9-0.1c0,0,0.1,0,0.1,0
		c0.4-0.1,2.1-0.4,2.8-0.1c-2.1,0.4-2.5,0.3-2.9,0.4c-0.1,0-0.2,0-0.2,0c-0.5,0.1-1.1,0.4-1.5,0.4c-0.1,0-0.3,0.2-0.5,0.2
		c-0.3,0.1-1,0.3-1.4,0.4C68.6,24.9,69.4,24.9,69.9,24.8"/>
	<path class="st2" d="M86.4,39.4c-0.1,0,0,0.5,0.1,0.4C86.7,39.7,86.8,39.2,86.4,39.4"/>
	<path class="st2" d="M87.2,32.4c0.1,0.2,0,0.7,0.3,0.5C87.6,32.7,87.4,32.3,87.2,32.4"/>
	<path class="st2" d="M86.5,40.1c0-0.1,0-0.1-0.1-0.2c-0.1,0-0.2,0-0.2,0.1c0,0,0,0,0,0c0,0,0,0,0,0c0,0,0,0.1,0.1,0.1c0,0,0,0,0,0
		c0,0.1,0.1,0.1,0.1,0.1c0-0.1,0-0.1,0.1-0.1c0,0,0,0,0,0C86.6,40.2,86.6,40.1,86.5,40.1"/>
	<path class="st2" d="M86.2,41.7c0-0.1-0.1-0.3-0.2-0.2c0,0-0.1,0-0.1,0.1c0,0,0,0,0,0c0,0,0,0,0,0c0,0,0,0,0,0
		c0,0.2-0.3,0.3-0.2,0.6c0.1,0,0.1,0,0.2,0c0.1,0,0.1-0.1,0.1-0.1c0,0,0-0.1,0.1-0.1C86.2,41.9,86.2,41.8,86.2,41.7"/>
	<path class="st2" d="M86.2,40.5c0.1,0.3-0.3,0.7,0,0.9C86.2,41.2,86.7,40.6,86.2,40.5"/>
	<path class="st3" d="M76.4,40.5C76.4,40.5,76.4,40.5,76.4,40.5C76.3,40.5,76.3,40.5,76.4,40.5C76.3,40.5,76.3,40.5,76.4,40.5
		C76.3,40.5,76.3,40.5,76.4,40.5C76.3,40.5,76.3,40.5,76.4,40.5C76.4,40.5,76.4,40.5,76.4,40.5C76.4,40.5,76.4,40.5,76.4,40.5"/>
	<path class="st0" d="M73.9,35.3c-0.1,0.1-0.2,0.1-0.3,0.2c-0.1,0-0.1,0.1-0.2,0.1c0,0,0,0,0,0c0,0,0,0,0,0c0,0,0,0,0,0
		c-0.1,0.1-0.2,0.2-0.3,0.3C73,36,73,36.1,72.9,36.2c0,0,0,0,0,0v0l0,0c0,0,0,0,0,0c0,0,0,0,0,0c0,0,0,0,0,0l0,0c0,0,0,0,0,0
		c0,0,0,0,0,0c0,0,0,0,0,0c0,0,0,0,0,0c0,0,0,0.1-0.1,0.1c0,0,0,0,0,0c0,0,0,0,0,0c0,0,0,0,0,0c0,0,0,0,0,0c0,0,0,0.1-0.1,0.1
		c0,0,0,0,0,0.1c0,0,0,0,0,0c0,0,0,0.1,0,0.1c0,0,0,0,0,0c0,0,0,0,0,0c0,0,0,0,0,0c0,0,0,0.1,0,0.1c0,0.1,0,0.1,0,0.2
		c0,0.1,0,0.1,0,0.2c0,0,0,0,0,0c0,0,0,0.1,0,0.1c0,0,0,0,0,0v0c0,0,0,0,0,0h0c0,0,0,0,0,0c0,0,0,0,0,0.1c0,0,0,0,0,0v0c0,0,0,0,0,0
		l0,0v0c0,0,0,0,0,0v0c0,0,0,0,0,0c0,0,0,0,0,0l0,0c0,0,0,0,0,0c0,0,0,0,0,0c0,0,0,0,0,0c0,0,0,0,0,0c0,0,0,0.1,0,0.1c0,0,0,0,0,0
		c0,0,0,0,0,0c0,0,0,0,0,0c0,0,0,0,0,0c0,0.3,0.1,0.6,0.2,0.9c0,0,0,0,0,0c0,0.1,0,0.1,0.1,0.1c0,0,0,0,0,0v0c0,0,0,0.1,0.1,0.1
		c0,0,0,0,0,0c0,0,0,0.1,0.1,0.1c0,0,0,0,0,0c0.1,0.1,0.1,0.2,0.2,0.3c0.1,0.1,0.1,0.2,0.1,0.2c0.1,0.1,0.1,0.1,0.2,0.2c0,0,0,0,0,0
		c0.1,0.1,0.1,0.1,0.2,0.1c0.1,0,0.1,0.1,0.2,0.1c0.1,0.1,0.2,0.1,0.2,0.1c0,0,0,0,0,0c0,0,0.1,0,0.1,0l0,0l0.1,0c0,0,0.1,0,0.1,0
		c0,0,0,0,0,0c0,0,0,0,0,0l0,0c0,0,0,0,0,0l0,0l0,0v0c0,0,0,0,0,0c0,0,0,0,0,0c0.1,0,0.1,0,0.2,0.1c0,0,0,0,0,0c0.1,0,0.1,0,0.2,0.1
		h0c0,0,0,0,0,0l0,0c0,0,0,0,0,0c0.1,0,0.1,0,0.2,0c0,0,0,0,0,0c0,0,0,0,0,0c0,0,0,0,0,0c0,0,0,0,0,0h0c-0.3-0.1-0.5-0.2-0.8-0.3
		c0,0,0,0,0,0l0,0c0,0,0-0.1,0,0c0.3,0.1,0.7,0.3,1,0.3c0,0,0,0,0,0c0,0,0,0,0,0c0,0,0,0,0,0c0.1,0,0.3,0,0.4,0c0,0,0,0,0,0
		c0,0,0,0,0,0c0,0,0,0,0,0c0,0,0.1,0,0.1,0c0,0,0,0,0,0c0,0,0,0,0,0c0,0,0,0,0,0c0,0,0.1,0,0.1,0l0,0c0,0,0,0,0,0c0,0,0,0,0,0
		c0,0,0,0,0,0c0,0,0,0,0,0c0,0,0,0,0,0c0,0-0.1,0-0.1,0c0,0,0,0,0,0c0,0,0,0,0,0l0,0c0,0-0.1,0-0.1,0c0,0,0,0,0,0c0,0,0,0,0,0v0
		c0,0,0,0,0,0c0,0,0,0,0,0l0,0c0,0,0,0,0,0l0,0c0,0,0.1,0,0.1,0c0,0,0.1,0,0.1,0c0,0,0.1,0,0.2,0c0,0,0,0,0,0c0,0,0.1,0,0.1,0
		c0,0,0,0,0,0c0,0,0,0,0.1,0c0,0,0.1,0,0.1,0c0,0,0,0,0,0c0,0,0,0,0,0c0,0,0,0,0,0c0,0,0,0,0,0c0,0,0.1,0,0.1,0c0,0,0,0,0,0
		c0,0,0.1,0,0,0.1c-0.1,0.1-0.2,0.1-0.3,0.2c0,0,0,0,0,0c-0.1,0-0.1,0-0.2,0.1c0,0-0.1,0-0.1,0c0,0,0,0,0,0c-0.1,0-0.2,0-0.3,0
		c-0.1,0-0.2,0-0.3,0c-0.1,0-0.3,0-0.4,0c-0.2,0-0.3,0-0.5-0.1h0c0,0,0,0,0,0c0,0,0,0-0.1,0c0,0-0.1,0-0.1,0c-0.2,0-0.4-0.1-0.6-0.2
		c0,0,0,0-0.1,0c-0.1,0-0.1,0-0.2-0.1c0,0,0,0,0,0c0,0,0,0,0,0c0,0-0.1,0-0.1-0.1c0,0,0,0,0,0c0,0,0,0,0,0c0,0-0.1-0.1-0.1-0.1
		c0,0-0.1,0-0.1-0.1c0,0,0,0,0,0c0,0,0,0,0,0c0,0,0,0,0,0c0,0-0.1-0.1-0.1-0.1c-0.1-0.1-0.3-0.3-0.4-0.4c-0.2-0.3-0.4-0.6-0.4-0.9
		c0,0,0,0,0,0c0,0,0-0.1,0-0.1c0-0.1,0-0.1,0-0.2c0,0,0-0.1,0-0.1c0,0,0-0.1,0-0.1c0-0.1,0-0.1,0-0.2c0,0,0-0.1,0-0.1c0,0,0,0,0,0
		c0,0,0,0,0,0c0,0,0,0,0-0.1c0,0,0-0.1,0-0.1c0-0.1,0-0.2,0-0.2c0-0.1,0-0.2,0-0.3c-0.2,0.7-0.2,1.5,0.2,2.3
		c0.3,0.5,0.7,0.9,1.1,1.2c0.4,0.2,0.8,0.4,1.2,0.4c0.5,0.1,1,0,1.5-0.2c0.1,0,0.1-0.1,0.2-0.1c0.1,0,0.2-0.1,0.2-0.1c0,0,0,0,0,0
		c0,0,0,0,0,0c0,0,0,0,0,0c0.1,0,0.1-0.1,0.2-0.1c0,0,0,0,0,0c0,0,0.1-0.1,0.1-0.1c0,0,0.1-0.1,0.1-0.1c0,0,0,0,0,0c0,0,0,0,0,0
		c0,0,0,0,0,0c0,0,0,0,0,0c0,0,0,0,0,0c0.1-0.1,0.1-0.2,0.2-0.3c0,0,0.1-0.1,0.1-0.1c0,0,0,0,0,0c0.1-0.2,0.2-0.4,0.3-0.6
		c0,0,0,0,0,0c0-0.1,0-0.2,0.1-0.3c0,0,0,0,0,0c0,0,0-0.1,0-0.1c0-0.1,0-0.1,0-0.2c0-0.2,0-0.3,0-0.5c0-0.1,0-0.2,0-0.2v0l0,0
		c0,0,0,0,0,0c0-0.1,0-0.3,0-0.4c0,0,0,0,0,0c0-0.1-0.1-0.2-0.1-0.3c0,0,0,0,0,0c0-0.1-0.1-0.1-0.1-0.2c0-0.1-0.1-0.1-0.1-0.2
		c0-0.1-0.1-0.1-0.1-0.2c0,0,0,0-0.1-0.1c0,0,0,0,0,0c-0.1-0.1-0.2-0.2-0.4-0.3c0,0,0,0,0,0c0,0,0,0,0,0c-0.2-0.2-0.4-0.3-0.6-0.4
		c0,0,0,0,0,0c-0.1,0-0.1,0-0.2-0.1c0,0,0,0,0,0c0,0,0,0,0,0c0,0,0,0,0,0c0,0,0,0,0,0c0,0-0.1,0-0.1,0c0,0,0,0-0.1,0c0,0,0,0,0,0
		c-0.1,0-0.3-0.1-0.4-0.1c0,0,0,0,0,0c-0.1,0-0.1,0-0.2,0c0,0,0,0-0.1,0c0,0,0,0-0.1,0c-0.1,0-0.1,0-0.2,0c0,0,0,0,0,0
		c-0.1,0-0.2,0-0.4,0c0.1,0,0.1,0,0.2,0c0,0,0,0,0,0c0,0,0,0,0,0h0c-0.1,0-0.2,0-0.2,0c0,0,0,0-0.1,0c0,0,0,0,0,0c0,0,0,0,0,0
		c0,0,0,0,0,0c0,0,0,0,0,0l0,0l0,0l0,0c0,0,0,0,0,0l0,0l0,0l0,0h0c0.1,0,0.2-0.1,0.3-0.1c0,0,0.1,0,0.1,0h0c0,0,0,0,0,0c0,0,0,0,0,0
		c0,0,0,0,0,0c0,0,0,0,0,0c0,0,0,0,0,0c0,0,0,0,0,0c0,0,0,0,0,0c0,0,0,0,0,0c0,0,0.1,0,0.1,0h0c0,0,0.1,0,0.1,0h0c0,0,0.1,0,0.1,0h0
		h0.1c0,0,0,0,0.1,0c0.1,0,0.2,0,0.3,0c0.1,0,0.2,0,0.2,0.1c0,0,0,0,0,0c0.1,0,0.1,0,0.1,0c0.1,0,0.1,0,0.2,0.1v0
		c0.1,0,0.2,0.1,0.2,0.1c0.1,0.1,0.2,0.1,0.3,0.2c0.1,0.1,0.2,0.1,0.3,0.2c0,0,0,0,0.1,0c0,0,0,0,0,0c0.1,0.1,0.2,0.2,0.2,0.3
		c0,0,0,0,0,0c0,0,0.1,0.1,0.1,0.1c0,0,0,0,0,0c0,0,0,0,0,0c0,0,0,0,0,0c0,0,0,0,0,0c0.2,0.3,0.4,0.6,0.4,0.9c0,0,0,0.1,0,0.1
		c0,0,0,0,0,0c0,0,0,0.1,0,0.1c0-0.3-0.1-0.7-0.3-1C77.2,35.1,75.4,34.5,73.9,35.3"/>
	<path class="st0" d="M84.4,36.8c-0.1-0.5-0.2-0.9-0.3-1.3c-0.2-0.6-0.4-1.3-0.6-1.9c0,0,0-0.1-0.1-0.1c-0.1-0.1-0.1-0.2-0.2-0.2
		C83.1,33.1,83,33,83,32.8c0-0.1-0.1-0.2-0.2-0.3c0,0,0,0,0,0c-0.5-0.5-0.9-1.1-1.5-1.5c-0.6-0.5-1.2-0.9-1.9-1.2c0,0-0.1,0-0.1-0.1
		c-0.6-0.3-1.3-0.6-1.9-0.8c-0.5-0.2-1-0.3-1.5-0.3c-0.5,0-0.9,0-1.4,0c-0.6,0.1-1.2,0.2-1.9,0.4c-0.6,0.1-1.1,0.3-1.6,0.6
		c-0.4,0.2-0.8,0.4-1.1,0.6c-1,0.6-1.8,1.3-2.5,2.3c-0.1,0.2-0.3,0.4-0.4,0.7c-0.6,1-0.9,2-1.2,3.1c-0.1,0.4-0.1,0.8-0.2,1.2
		c0,0.4,0,0.7,0,1.1c0,0.4,0.1,0.9,0.2,1.3c0.1,0.5,0.2,1,0.3,1.5c0,0,0,0,0,0.1c0,0,0,0.1,0,0.1c0.1,0.2,0.2,0.5,0.3,0.7
		c0.1,0.3,0.3,0.6,0.5,0.8c0.1,0.1,0.2,0.2,0.3,0.4c0.1,0.1,0.1,0.2,0.2,0.2c0.1,0.1,0.2,0.2,0.3,0.3c0.5,0.8,1.2,1.4,2,2
		c1.2,0.8,2.5,1.2,3.9,1.4c0.2,0,0.5,0.1,0.7,0.1c0.5,0.1,0.9,0,1.4,0c0.3,0,0.5-0.1,0.8-0.2c0.6-0.1,1.2-0.3,1.8-0.4
		c0.3-0.1,0.3-0.1,0.5-0.2c0.2-0.2,0.4-0.3,0.6-0.3c0,0,0.1,0,0.1,0c0.2-0.2,0.5-0.4,0.7-0.5c0.2-0.2,0.4-0.3,0.6-0.5
		c0.3-0.3,0.7-0.5,1-0.8c0.5-0.5,0.9-1,1.2-1.6c0.2-0.4,0.4-0.7,0.6-1.1c0.5-1.2,0.7-2.4,0.7-3.8C84.5,37.6,84.5,37.2,84.4,36.8
		 M79.4,41c-0.2,1.7-0.5,3.2-0.5,3.3l-0.1,0.5l-0.4-0.2l-0.1,0c-0.1,0-1.4-0.6-3-1.5c-2.1-1.2-3.4-2.2-3.8-3l0-0.1
		c0-0.1-0.1-0.1-0.1-0.1c0,0,0,0,0-0.1c-1-1.9-0.3-4.3,1.6-5.5c0.1-0.1,0.2-0.1,0.4-0.2c0.6-0.3,1.3-0.5,2-0.5c1.6,0,3,0.9,3.8,2.3
		c0,0,0,0.1,0.1,0.1c0,0,0,0.1,0.1,0.1l0,0l0,0C79.6,37,79.6,38.7,79.4,41"/>
	<path class="st4" d="M76.2,40.6C76.2,40.6,76.2,40.6,76.2,40.6C76.2,40.6,76.2,40.6,76.2,40.6C76.2,40.7,76.2,40.7,76.2,40.6
		C76.2,40.7,76.2,40.7,76.2,40.6C76.2,40.6,76.2,40.6,76.2,40.6C76.2,40.6,76.2,40.6,76.2,40.6C76.2,40.6,76.2,40.6,76.2,40.6
		 M78.2,44.6c-0.1,0-1.4-0.6-3-1.5c-2.1-1.2-3.4-2.2-3.8-3l0-0.1c0-0.1-0.1-0.1-0.1-0.1c0,0,0,0,0-0.1c-0.3-0.6-0.4-1.2-0.4-1.8
		c0-0.1,0-0.1,0-0.2c0,0,0,0,0,0c0,0,0,0,0,0c0,0,0-0.1,0-0.1c0,0,0-0.1,0-0.1c0,0,0-0.1,0-0.1c0,0,0,0,0,0c0,0,0,0,0-0.1
		c0-0.1,0-0.1,0-0.2c0,0,0,0,0-0.1c0,0,0,0,0,0c0,0,0-0.1,0-0.1c0,0,0-0.1,0-0.1c0,0,0,0,0,0c0,0,0-0.1,0-0.1c0-0.1,0.1-0.2,0.1-0.3
		c0,0,0-0.1,0-0.1c0,0,0-0.1,0.1-0.1c0,0,0-0.1,0.1-0.1c0,0,0,0,0,0c0,0,0-0.1,0-0.1c0,0,0-0.1,0.1-0.1c0,0,0,0,0,0
		c0,0,0-0.1,0.1-0.1c0,0,0,0,0,0c0,0,0-0.1,0.1-0.1c0,0,0.1-0.1,0.1-0.1c0,0,0.1-0.1,0.1-0.1c0,0,0.1-0.1,0.1-0.1
		c0,0,0.1-0.1,0.1-0.1c0,0,0,0,0,0c0,0,0.1-0.1,0.1-0.1c0,0,0,0,0,0c0,0,0.1-0.1,0.1-0.1l0,0c0,0,0.1-0.1,0.1-0.1
		c0,0,0.1-0.1,0.1-0.1c0,0,0.1-0.1,0.1-0.1c0,0,0.1-0.1,0.1-0.1c0,0,0,0,0,0c0,0,0.1-0.1,0.1-0.1c0,0,0,0,0,0c0,0,0.1-0.1,0.1-0.1
		c0,0,0.1-0.1,0.1-0.1c-0.1,0-0.1,0-0.1,0.1c-2.1,1.1-3,3.6-2,5.7c0,0,0,0.1,0,0.1c0,0,0,0.1,0.1,0.1l0,0.1c0.4,0.8,1.7,1.9,3.8,3
		c1.5,0.8,2.9,1.5,3,1.5l0.5,0.2L78.2,44.6L78.2,44.6z M78,38.1c0-0.1,0-0.2,0-0.2v0l0,0c0,0,0,0,0,0c0-0.1,0-0.3,0-0.4c0,0,0,0,0,0
		c0-0.1-0.1-0.2-0.1-0.3c0,0,0,0,0,0c0-0.1-0.1-0.1-0.1-0.2c0-0.1-0.1-0.1-0.1-0.2c0-0.1-0.1-0.1-0.1-0.2c0,0,0,0-0.1-0.1
		c0,0,0,0,0,0c-0.1-0.1-0.2-0.2-0.4-0.3c0,0,0,0,0,0c0,0,0,0,0,0c-0.2-0.2-0.4-0.3-0.6-0.4c0,0,0,0,0,0c-0.1,0-0.1,0-0.2-0.1
		c0,0,0,0,0,0c0,0,0,0,0,0c0,0,0,0,0,0c0,0,0,0,0,0c0,0-0.1,0-0.1,0c0,0,0,0-0.1,0c0.6,0.3,1.1,0.8,1.4,1.4c0.2,0.3,0.3,0.7,0.3,1
		c0,0,0-0.1,0-0.1c0,0,0,0,0,0c0,0,0-0.1,0-0.1c-0.1-0.3-0.2-0.6-0.4-0.9c0,0,0,0,0,0c0,0,0,0,0,0c0,0,0,0,0,0c0,0,0,0,0,0
		c0,0-0.1-0.1-0.1-0.1c0,0,0,0,0,0c-0.1-0.1-0.2-0.2-0.2-0.3c0,0,0,0,0,0c0,0,0,0-0.1,0c-0.1-0.1-0.2-0.1-0.3-0.2
		c-0.1-0.1-0.2-0.1-0.3-0.2c-0.1,0-0.2-0.1-0.2-0.1v0c-0.1,0-0.1,0-0.2-0.1c0,0-0.1,0-0.1,0c0,0,0,0,0,0c-0.1-0.1-0.2-0.1-0.2-0.1
		c-0.1,0-0.3,0-0.4,0h-0.1h0c0,0-0.1,0-0.1,0h0c0,0-0.1,0-0.1,0h0c0,0-0.1,0-0.1,0c0,0,0,0,0,0c0,0,0,0,0,0c0,0,0,0,0,0c0,0,0,0,0,0
		c0,0,0,0,0,0c0,0,0,0,0,0c0,0,0,0,0,0c0,0,0,0,0,0c0,0,0,0,0,0c0,0-0.1,0-0.1,0c-0.1,0-0.2,0-0.3,0.1h0l0,0l0,0l0,0c0,0,0,0,0,0
		l0,0l0,0l0,0c0,0,0,0,0,0c0,0,0,0,0,0c0,0,0,0,0,0c0,0,0,0,0,0c0,0,0,0,0.1,0c0.1,0,0.2,0,0.2,0h0c0,0,0,0,0,0c0,0,0,0,0,0
		c-0.1,0-0.1,0-0.2,0c0.1,0,0.2,0,0.4,0c0,0,0,0,0,0c0.1,0,0.1,0,0.2,0c0,0,0,0,0.1,0c0,0,0,0,0.1,0c0.1,0,0.1,0,0.2,0c0,0,0,0,0,0
		c0.1,0,0.3,0.1,0.4,0.1c0,0,0,0,0.1,0c0,0,0.1,0,0.1,0c0,0,0,0,0,0c0,0,0,0,0,0c0,0,0,0,0,0c0,0,0,0,0,0c0,0,0.1,0.1,0.2,0.1
		c0,0,0,0,0,0c0.2,0.1,0.4,0.3,0.6,0.4c0,0,0,0,0,0c0,0,0,0,0,0c0.1,0.1,0.3,0.2,0.4,0.3c0,0,0,0,0,0c0,0,0,0,0.1,0.1
		c0,0.1,0.1,0.1,0.1,0.2c0,0,0.1,0.1,0.1,0.2c0,0.1,0.1,0.1,0.1,0.2c0,0,0,0,0,0c0,0.1,0.1,0.2,0.1,0.3c0,0,0,0,0,0
		c0,0.1,0,0.3,0,0.4c0,0,0,0,0,0l0,0v0c0,0.1,0,0.2,0,0.2c0,0.2,0,0.3,0,0.5c0,0.1,0,0.1,0,0.2c0,0,0,0.1,0,0.1c0,0,0,0,0,0
		c0,0.1,0,0.2-0.1,0.3c0,0,0,0,0,0c-0.1,0.2-0.1,0.4-0.3,0.6c0,0,0,0,0,0c0,0-0.1,0.1-0.1,0.1c-0.1,0.1-0.1,0.2-0.2,0.3c0,0,0,0,0,0
		c0,0,0,0,0,0c0,0,0,0,0,0c0,0,0,0,0,0c0,0,0,0,0,0c0,0-0.1,0.1-0.1,0.1c0,0-0.1,0.1-0.1,0.1c0,0,0,0,0,0c0,0-0.1,0.1-0.1,0.1
		c0,0,0.1,0,0.1,0c0,0,0.1,0,0.1-0.1c0.1,0,0.2-0.1,0.2-0.1c0,0,0,0,0,0c0,0,0,0,0,0c0,0,0,0,0,0c0.1,0,0.1-0.1,0.2-0.1c0,0,0,0,0,0
		c0,0,0.1-0.1,0.1-0.1c0,0,0.1-0.1,0.1-0.1c0,0,0,0,0,0c0,0,0,0,0,0c0,0,0,0,0,0c0,0,0,0,0,0c0,0,0,0,0,0c0.1-0.1,0.1-0.2,0.2-0.3
		c0,0,0.1-0.1,0.1-0.1c0,0,0,0,0,0c0.1-0.2,0.2-0.4,0.3-0.6c0,0,0,0,0,0c0-0.1,0-0.2,0.1-0.3c0,0,0,0,0,0c0,0,0-0.1,0-0.1
		c0-0.1,0-0.1,0-0.2C78,38.4,78,38.3,78,38.1 M76.3,40.6C76.2,40.6,76.2,40.6,76.3,40.6C76.2,40.6,76.2,40.6,76.3,40.6
		C76.2,40.6,76.2,40.6,76.3,40.6L76.3,40.6c-0.1,0-0.1,0-0.1,0c0,0,0,0,0,0c0,0,0,0,0,0c0,0,0,0,0,0c0,0,0,0,0,0c0,0-0.1,0-0.1,0
		c0,0,0,0-0.1,0l0,0c0,0-0.1,0-0.1,0c0,0,0,0,0,0c-0.1,0-0.1,0-0.2,0c0,0-0.1,0-0.1,0c0,0-0.1,0-0.1,0l0,0c0,0,0,0,0,0l0,0
		c0,0,0,0,0,0c0,0,0,0,0,0v0c0,0,0,0,0,0c0,0,0,0,0,0c0,0,0.1,0,0.1,0l0,0c0,0,0,0,0,0c0,0,0,0,0,0c0,0,0,0,0.1,0c0,0,0,0,0,0
		c0,0,0,0,0,0c0,0,0,0,0,0c0,0,0,0,0,0c0,0,0,0,0,0l0,0c0,0-0.1,0-0.1,0c0,0,0,0,0,0c0,0,0,0,0,0c0,0,0,0,0,0c0,0-0.1,0-0.1,0
		c0,0,0,0,0,0c0,0,0,0,0,0c0,0,0,0,0,0c-0.1,0-0.3,0-0.4,0c0,0,0,0,0,0c0,0,0,0,0,0c0,0,0,0,0,0c-0.4-0.1-0.7-0.2-1-0.3
		c0,0-0.1,0,0,0l0,0c0,0,0,0,0,0c0.3,0.1,0.5,0.2,0.8,0.3h0c0,0,0,0,0,0c0,0,0,0,0,0c0,0,0,0,0,0c0,0,0,0,0,0c-0.1,0-0.1,0-0.2,0
		c0,0,0,0,0,0l0,0c0,0,0,0,0,0h0c-0.1,0-0.1,0-0.2-0.1c0,0,0,0,0,0c-0.1,0-0.1,0-0.2-0.1c0,0,0,0,0,0c0,0,0,0,0,0v0l0,0l0,0
		c0,0,0,0,0,0l0,0c0,0,0,0,0,0c0,0,0,0,0,0c0,0-0.1,0-0.1,0l0,0c0,0,0,0,0,0c0,0,0,0,0,0c0,0,0,0,0,0c0,0,0,0,0,0
		c0.1,0,0.2,0.1,0.2,0.1c0,0,0,0,0.1,0c0,0,0,0,0,0c0,0,0,0,0.1,0c0.1,0,0.2,0.1,0.3,0.1c0,0,0,0,0,0c0,0,0.1,0,0.1,0c0,0,0,0,0.1,0
		c0.1,0,0.1,0,0.2,0c0,0,0,0,0,0c0,0,0,0,0.1,0c0,0,0,0,0,0h0c0.1,0,0.2,0,0.2,0c0.1,0,0.2,0,0.3,0c0.1,0,0.2,0,0.3,0
		c0.1,0,0.2-0.1,0.2-0.1c0,0,0,0,0,0C76,40.8,76.1,40.7,76.3,40.6C76.3,40.7,76.3,40.6,76.3,40.6"/>
</g>
</svg>
